<?xml version="1.0" encoding="utf-8"?>
<!-- Generator: Adobe Illustrator 25.4.1, SVG Export Plug-In . SVG Version: 6.00 Build 0)  -->
<svg version="1.1" id="Capa_1" xmlns="http://www.w3.org/2000/svg" xmlns:xlink="http://www.w3.org/1999/xlink" x="0px" y="0px"
	 viewBox="0 0 700 568" style="enable-background:new 0 0 700 568;" xml:space="preserve">
<g>
	<path d="M27.3,47.1c-28,0-28-43.1,0-43.1h56c34.5,0,64.6,23.7,73.2,58.2l8.6,32.3h506.1c15.1,0,25.8,15.1,21.5,28L602.3,396
		c-2.2,8.6-10.8,15.1-21.5,15.1h-364c-10.8,0-19.4-6.5-21.5-15.1L115.6,72.9c-4.3-15.1-17.2-25.8-32.3-25.8L27.3,47.1L27.3,47.1z
		 M175.9,137.5L234,368h331.7l77.5-230.5L175.9,137.5z"/>
	<path d="M272.8,430.5c36.6,0,66.8,30.2,66.8,66.8c0,36.6-30.2,66.8-66.8,66.8c-36.6,0-66.8-30.2-66.8-66.8
		C206,460.6,236.2,430.5,272.8,430.5L272.8,430.5z M272.8,473.5c-12.9,0-23.7,10.8-23.7,23.7s10.8,23.7,23.7,23.7
		c12.9,0,23.7-10.8,23.7-23.7S285.7,473.5,272.8,473.5L272.8,473.5z"/>
	<path d="M507.6,430.5c36.6,0,66.8,30.2,66.8,66.8c0,36.6-30.2,66.8-66.8,66.8c-36.6,0-66.8-30.2-66.8-66.8
		C440.8,460.6,470.9,430.5,507.6,430.5L507.6,430.5z M507.6,473.5c-12.9,0-23.7,10.8-23.7,23.7s10.8,23.7,23.7,23.7
		c12.9,0,23.7-10.8,23.7-23.7S520.5,473.5,507.6,473.5L507.6,473.5z"/>
</g>
</svg>
