<?xml version="1.0" encoding="utf-8"?>
<!-- Generator: Adobe Illustrator 25.4.1, SVG Export Plug-In . SVG Version: 6.00 Build 0)  -->
<svg version="1.1" id="Capa_1" xmlns="http://www.w3.org/2000/svg" xmlns:xlink="http://www.w3.org/1999/xlink" x="0px" y="0px"
	 viewBox="0 0 700 700" style="enable-background:new 0 0 700 700;" xml:space="preserve">
<style type="text/css">
	.st0{fill:#2B2B2B;}
</style>
<g>
	<path class="st0" d="M424.7,350L679.5,95.2c20.6-20.6,20.6-54.1,0-74.7c-20.6-20.7-54.1-20.7-74.7,0L350,275.3L95.2,20.5
		c-20.6-20.7-54.1-20.7-74.8,0c-20.6,20.6-20.6,54.1,0,74.7L275.3,350L20.5,604.8c-20.6,20.6-20.6,54.1,0,74.7
		c20.6,20.6,54.1,20.6,74.8,0L350,424.7l254.8,254.8c20.6,20.6,54.1,20.6,74.8,0c20.6-20.6,20.6-54.1,0-74.7L424.7,350z"/>
</g>
</svg>
