<?xml version="1.0" encoding="utf-8"?>
<!-- Generator: Adobe Illustrator 25.4.1, SVG Export Plug-In . SVG Version: 6.00 Build 0)  -->
<svg version="1.1" id="Capa_1" xmlns="http://www.w3.org/2000/svg" xmlns:xlink="http://www.w3.org/1999/xlink" x="0px" y="0px"
	 viewBox="0 0 700 548" style="enable-background:new 0 0 700 548;" xml:space="preserve">
<style type="text/css">
	.st0{fill:#2B2B2B;}
</style>
<g>
	<path class="st0" d="M460.5,251.5c22.2-25.9,34.6-58.8,34.6-93.8c0-80-65.1-145.1-145.1-145.1S204.9,77.7,204.9,157.7
		c0,35.1,12.4,67.9,34.6,93.8c-61,33.2-99,92-99,156.6c0,127.3,146.8,127.3,209.5,127.3s209.5,0,209.5-127.3
		C559.5,343.6,521.5,284.8,460.5,251.5L460.5,251.5z M350,53.3c57.5,0,104.4,46.8,104.4,104.3c0,33.1-15.3,63.5-42,83.5
		C394.1,254.8,372.6,262,350,262s-44.1-7.2-62.4-20.9c-26.7-20-42-50.4-42-83.5C245.7,100.1,292.5,53.3,350,53.3L350,53.3z
		 M350,494.7c-121.4,0-168.8-24.3-168.8-86.5c0-54,35.6-103.1,91.7-127.7c0,0,0,0,0,0c0,0,0.1,0,0.1,0.1c3.1,1.9,6.2,3.7,9.4,5.4
		c1,0.6,2.1,1,3.2,1.6c2.2,1.1,4.4,2.2,6.7,3.2c1.3,0.6,2.6,1.1,3.9,1.6c2.1,0.8,4.2,1.7,6.3,2.4c1.4,0.5,2.7,0.9,4.1,1.3
		c2.1,0.7,4.2,1.3,6.4,1.8c1.4,0.4,2.8,0.7,4.2,1.1c2.2,0.5,4.4,1,6.7,1.4c1.4,0.2,2.7,0.5,4.1,0.7c2.4,0.4,4.9,0.6,7.4,0.9
		c1.2,0.1,2.3,0.3,3.5,0.4c3.7,0.3,7.3,0.4,11,0.4c3.7,0,7.4-0.2,11-0.4c1.2-0.1,2.4-0.3,3.5-0.4c2.5-0.2,4.9-0.5,7.4-0.9
		c1.4-0.2,2.7-0.5,4.1-0.7c2.2-0.4,4.5-0.8,6.7-1.4c1.4-0.3,2.8-0.7,4.2-1.1c2.2-0.6,4.3-1.2,6.4-1.8c1.4-0.4,2.8-0.9,4.1-1.3
		c2.1-0.8,4.2-1.6,6.3-2.4c1.3-0.5,2.6-1,3.9-1.6c2.2-1,4.5-2.1,6.7-3.2c1.1-0.5,2.1-1,3.2-1.6c3.2-1.7,6.3-3.5,9.4-5.4
		c0,0,0.1,0,0.1-0.1c0,0,0,0,0,0c56,24.5,91.7,73.7,91.7,127.7C518.8,470.4,471.4,494.7,350,494.7L350,494.7z"/>
</g>
</svg>
